<svg width="11" height="13" viewBox="0 0 11 13" fill="none" xmlns="http://www.w3.org/2000/svg">
<path d="M9.60376 4.0388C9.46379 2.63567 8.20755 2.16545 6.62009 2.03134V0.0842285H5.39167V1.97937C5.06914 1.97937 4.73878 1.98524 4.41102 1.99194V0.0842285H3.18261L3.18174 2.02966C2.91571 2.03469 2.65403 2.03972 2.39931 2.03972V2.03385L0.70491 2.03302V3.29868C0.70491 3.29868 1.61253 3.28192 1.59688 3.29784C2.09503 3.29784 2.25673 3.57612 2.30368 3.81668V6.03453C2.33845 6.03453 2.38279 6.0362 2.43321 6.04291H2.30368L2.30281 9.15007C2.28107 9.30095 2.18892 9.54151 1.84117 9.54235C1.85682 9.55576 0.948333 9.54235 0.948333 9.54235L0.704041 10.9572H2.30368C2.601 10.9572 2.89398 10.9622 3.18087 10.9639L3.18174 12.9328H4.40929V10.9849C4.74573 10.9916 5.07174 10.9941 5.3908 10.9941L5.38993 12.9328H6.61835V10.9681C8.68397 10.8541 10.1315 10.352 10.3106 8.4812C10.4557 6.97497 9.72112 6.30191 8.54834 6.03034C9.2621 5.68165 9.70808 5.06558 9.60376 4.0388ZM7.88415 8.24818C7.88415 9.7192 5.2717 9.5524 4.43798 9.5524V6.94312C5.2717 6.9448 7.88415 6.7143 7.88415 8.24818ZM7.3121 4.5677C7.3121 5.90628 5.13173 5.74954 4.43798 5.75038V3.38501C5.1326 3.38501 7.31297 3.17211 7.3121 4.5677Z" fill="white"/>
</svg>
