<svg width="17" height="17" viewBox="0 0 17 17" fill="none" xmlns="http://www.w3.org/2000/svg">
<path d="M13.4847 2.09912H4.15137C3.62093 2.09912 3.11223 2.30983 2.73715 2.68491C2.36208 3.05998 2.15137 3.56869 2.15137 4.09912V4.87912C2.15127 5.15442 2.20801 5.42677 2.31803 5.67912V5.71912C2.41222 5.9331 2.54563 6.12756 2.71137 6.29245L6.81803 10.3725V14.7658C6.81781 14.8791 6.84646 14.9906 6.90128 15.0897C6.9561 15.1889 7.03529 15.2724 7.13137 15.3325C7.23746 15.3982 7.35988 15.4329 7.4847 15.4325C7.58906 15.4318 7.69182 15.4067 7.7847 15.3591L10.4514 14.0258C10.5613 13.9704 10.6538 13.8856 10.7185 13.7809C10.7832 13.6762 10.8177 13.5556 10.818 13.4325V10.3725L14.898 6.29245C15.0638 6.12756 15.1972 5.9331 15.2914 5.71912V5.67912C15.4106 5.42874 15.4764 5.15631 15.4847 4.87912V4.09912C15.4847 3.56869 15.274 3.05998 14.8989 2.68491C14.5238 2.30983 14.0151 2.09912 13.4847 2.09912ZM9.67803 9.62579C9.61625 9.68808 9.56736 9.76196 9.53419 9.84318C9.50101 9.92441 9.48419 10.0114 9.4847 10.0991V13.0191L8.15137 13.6858V10.0991C8.15187 10.0114 8.13506 9.92441 8.10188 9.84318C8.0687 9.76196 8.01982 9.68808 7.95803 9.62579L4.4247 6.09912H13.2114L9.67803 9.62579ZM14.1514 4.76579H3.4847V4.09912C3.4847 3.92231 3.55494 3.75274 3.67996 3.62772C3.80499 3.50269 3.97456 3.43245 4.15137 3.43245H13.4847C13.6615 3.43245 13.8311 3.50269 13.9561 3.62772C14.0811 3.75274 14.1514 3.92231 14.1514 4.09912V4.76579Z" fill="#151515"/>
</svg>
