<svg width="18" height="16" viewBox="0 0 18 16" fill="none" xmlns="http://www.w3.org/2000/svg">
<path fill-rule="evenodd" clip-rule="evenodd" d="M8.56687 0.666748C4.26366 0.666748 0.775208 3.94999 0.775208 8.00008C0.775208 12.0502 4.26366 15.3334 8.56687 15.3334C12.8701 15.3334 16.3585 12.0502 16.3585 8.00008C16.3585 3.94999 12.8701 0.666748 8.56687 0.666748ZM1.84687 7.66675H5.20813C5.27916 5.64219 5.98669 4.00652 6.69066 2.86417C6.9669 2.41591 7.24349 2.04207 7.48281 1.7485C4.39543 2.21911 2.01215 4.66681 1.84687 7.66675ZM5.22572 8.66675H1.87454C2.19093 11.5132 4.51059 13.7986 7.4828 14.2517C7.24349 13.9581 6.96689 13.5843 6.69066 13.136C6.02574 12.057 5.35765 10.5379 5.22572 8.66675ZM6.29084 8.66675H10.8429C10.7133 10.3196 10.1202 11.6669 9.52399 12.6343C9.18696 13.1812 8.85057 13.6039 8.60051 13.888L8.56687 13.9259L8.53324 13.888C8.28318 13.6039 7.94679 13.1812 7.60976 12.6343C7.01357 11.6669 6.42048 10.3196 6.29084 8.66675ZM10.8625 7.66675H6.27128C6.34172 5.8612 6.97398 4.39757 7.60976 3.36589C7.94679 2.81898 8.28318 2.39625 8.53324 2.1122L8.56687 2.07424L8.60051 2.1122C8.85057 2.39625 9.18696 2.81898 9.52399 3.36589C10.1598 4.39757 10.792 5.8612 10.8625 7.66675ZM11.908 8.66675C11.7761 10.5379 11.108 12.057 10.4431 13.136C10.1669 13.5843 9.89026 13.9581 9.65095 14.2517C12.6232 13.7986 14.9428 11.5132 15.2592 8.66675H11.908ZM15.2869 7.66675H11.9256C11.8546 5.64219 11.1471 4.00652 10.4431 2.86417C10.1668 2.41591 9.89025 2.04207 9.65094 1.7485C12.7383 2.21911 15.1216 4.66681 15.2869 7.66675Z" fill="white"/>
</svg>
