<svg width="14" height="16" viewBox="0 0 14 16" fill="none" xmlns="http://www.w3.org/2000/svg">
<path fill-rule="evenodd" clip-rule="evenodd" d="M10.203 3.32731C10.6674 3.79162 11.0359 4.34287 11.2872 4.94959C11.5386 5.5563 11.6679 6.20659 11.6679 6.86331C11.6679 7.52003 11.5386 8.17031 11.2872 8.77703C11.0359 9.38374 10.6674 9.935 10.203 10.3993L6.66699 13.9333L3.13099 10.3983C2.66664 9.934 2.29829 9.38268 2.04699 8.77598C1.79568 8.16927 1.66633 7.519 1.66633 6.86231C1.66633 6.20561 1.79568 5.55535 2.04699 4.94864C2.29829 4.34193 2.66664 3.79066 3.13099 3.32631C3.59535 2.86195 4.14662 2.49361 4.75332 2.2423C5.36003 1.99099 6.0103 1.86165 6.66699 1.86165C7.32369 1.86165 7.97395 1.99099 8.58066 2.2423C9.18739 2.49361 9.73859 2.86195 10.203 3.32631V3.32731ZM11.263 11.4593C12.1721 10.5503 12.7912 9.3921 13.0421 8.13121C13.2929 6.87032 13.1642 5.56335 12.6723 4.3756C12.1803 3.18785 11.3472 2.17266 10.2783 1.4584C9.20929 0.744147 7.95259 0.362915 6.66699 0.362915C5.38139 0.362915 4.12466 0.744147 3.05573 1.4584C1.9868 2.17266 1.15368 3.18785 0.661722 4.3756C0.169772 5.56335 0.0410821 6.87032 0.291932 8.13121C0.542782 9.3921 1.1619 10.5503 2.07099 11.4593L5.60599 14.9953C5.74529 15.1347 5.91069 15.2453 6.09275 15.3207C6.2748 15.3962 6.46993 15.435 6.66699 15.435C6.86406 15.435 7.05919 15.3962 7.24124 15.3207C7.42329 15.2453 7.58869 15.1347 7.72799 14.9953L11.263 11.4593ZM6.66699 8.86331C7.19743 8.86331 7.70613 8.65259 8.08121 8.27752C8.45628 7.90245 8.66699 7.39374 8.66699 6.86331C8.66699 6.33287 8.45628 5.82417 8.08121 5.44909C7.70613 5.07402 7.19743 4.86331 6.66699 4.86331C6.13656 4.86331 5.62785 5.07402 5.25278 5.44909C4.87771 5.82417 4.66699 6.33287 4.66699 6.86331C4.66699 7.39374 4.87771 7.90245 5.25278 8.27752C5.62785 8.65259 6.13656 8.86331 6.66699 8.86331Z" fill="#24292E"/>
</svg>
