<svg width="21" height="20" viewBox="0 0 21 20" fill="none" xmlns="http://www.w3.org/2000/svg">
<path d="M8.98193 1.73584H11.4816C10.9586 2.3974 10.6486 3.21974 10.6486 4.11084C10.6486 4.31271 10.6645 4.51106 10.6952 4.7048L10.6486 4.70459C8.1486 4.70459 7.31527 6.50167 7.31527 8.46501V13.6108H13.9819V8.46501C13.9819 8.30413 13.9763 8.14438 13.9647 7.98663C14.2393 8.04074 14.5238 8.06917 14.8153 8.06917C15.0963 8.06917 15.3709 8.04274 15.6363 7.99234C15.6446 8.14799 15.6486 8.30565 15.6486 8.46501V12.8192L17.3153 13.6108V15.1942H3.98193V13.6108L5.6486 12.8192V8.46501C5.6486 6.02667 6.5986 4.00001 8.98193 3.46167V1.73584Z" fill="#151515"/>
<path d="M12.3153 4.11084C12.3153 3.8933 12.3461 3.68259 12.4037 3.48242C12.6937 2.47571 13.6635 1.73584 14.8153 1.73584C16.196 1.73584 17.3153 2.79916 17.3153 4.11084C17.3153 5.23682 16.4905 6.17979 15.3835 6.42422C15.201 6.46453 15.0107 6.48584 14.8153 6.48584C14.2919 6.48584 13.806 6.33304 13.4045 6.07184C13.0755 5.85779 12.803 5.57093 12.6129 5.2357C12.423 4.90088 12.3153 4.51782 12.3153 4.11084Z" fill="#151515"/>
<path d="M10.6486 17.5692C11.5653 17.5692 12.3153 16.8567 12.3153 15.9858H8.98193C8.98193 16.8567 9.73193 17.5692 10.6486 17.5692Z" fill="#151515"/>
</svg>
