<svg width="44" height="44" viewBox="0 0 44 44" fill="none" xmlns="http://www.w3.org/2000/svg">
<path d="M17 29.1683V14.8317C17 14.0405 17.8752 13.5627 18.5408 13.9905L29.6915 21.1588C30.3038 21.5525 30.3038 22.4475 29.6915 22.8412L18.5408 30.0095C17.8752 30.4373 17 29.9595 17 29.1683Z" fill="white"/>
<path fill-rule="evenodd" clip-rule="evenodd" d="M22 3C11.5066 3 3 11.5066 3 22C3 32.4934 11.5066 41 22 41C32.4934 41 41 32.4934 41 22C41 11.5066 32.4934 3 22 3ZM0 22C0 9.84973 9.84973 0 22 0C34.1503 0 44 9.84973 44 22C44 34.1503 34.1503 44 22 44C9.84973 44 0 34.1503 0 22Z" fill="white"/>
</svg>
