<svg width="16" height="16" viewBox="0 0 16 16" fill="none" xmlns="http://www.w3.org/2000/svg">
<path d="M15.3545 14.667L12.6095 11.922C13.6033 10.7445 14.207 9.22495 14.207 7.56445C14.207 3.83695 11.1845 0.814453 7.45703 0.814453C3.72953 0.814453 0.707031 3.83695 0.707031 7.56445C0.707031 11.292 3.72953 14.3145 7.45703 14.3145C9.11828 14.3145 10.637 13.7115 11.813 12.717L14.558 15.462C14.6683 15.5715 14.813 15.627 14.9555 15.627C15.098 15.627 15.2443 15.5722 15.353 15.462C15.5743 15.2422 15.5743 14.8867 15.3545 14.667ZM1.83203 7.56445C1.83203 4.4632 4.35578 1.93945 7.45703 1.93945C10.5583 1.93945 13.082 4.4632 13.082 7.56445C13.082 10.6657 10.5583 13.1895 7.45703 13.1895C4.35578 13.1895 1.83203 10.6657 1.83203 7.56445Z" fill="white"/>
</svg>
